<svg xmlns="http://www.w3.org/2000/svg" width="2" height="2" viewBox="0 0 15 15" fill="none">
  <path d="M13.9989 7.17778L13.8787 8.01923L13.7584 8.86069H13.7562H13.7541L11.7374 8.56916L9.72064 8.27764L11.2619 9.62816L12.8031 10.9787L12.2522 11.6203L11.7013 12.2619L10.159 10.9124L8.61665 9.56301L9.19051 11.5408L9.76437 13.5185L8.95768 13.7582L8.151 13.9978V13.9945L8.14991 13.9912L7.57495 12.0167L7 10.0423L6.42395 12.02L5.84791 13.9978L5.04122 13.7582L4.23454 13.5185V13.5163L4.23673 13.5141L4.80949 11.5386L5.38226 9.56301L3.83994 10.9124L2.29763 12.2619L1.74672 11.6203L1.19582 10.9787L1.19909 10.9754L1.20237 10.9721L2.74032 9.62485L4.27826 8.27764L2.25828 8.57027L0.238289 8.8629L0.119144 8.02144L0 7.17999H0.00109307L2.01999 6.88625L4.03888 6.59251L2.18395 5.73559L0.329013 4.87868L0.678794 4.10568L1.02858 3.33269L2.8857 4.1885L4.74282 5.04432L3.63991 3.3095L2.53701 1.57469L3.24422 1.11531L3.95144 0.655928L5.05543 2.38964L6.15943 4.12335V2.06277L6.16162 0.00219727H7.84385V2.06277L7.84603 4.12335L8.95003 2.38964L10.054 0.655928L10.7612 1.11531L11.4685 1.57469V1.57689L11.4663 1.5791L10.3656 3.31171L9.26483 5.04432L11.122 4.1885L12.9791 3.33269L13.3289 4.10568L13.6786 4.87868L11.8226 5.73559L9.96658 6.59251L11.9855 6.88625L14.0044 7.17999L13.9989 7.17778Z" fill="#28C7C7"/>
</svg>