<?xml version="1.0" encoding="utf-8"?>
<!-- Generator: Adobe Illustrator 27.3.1, SVG Export Plug-In . SVG Version: 6.00 Build 0)  -->
<svg version="1.1" id="Layer_1" xmlns="http://www.w3.org/2000/svg" xmlns:xlink="http://www.w3.org/1999/xlink" x="0px" y="0px"
	 viewBox="0 0 22 22" style="enable-background:new 0 0 22 22;" xml:space="preserve">
<path d="M21.8,15.6c-0.2-0.2-0.5-0.4-0.8-0.3c-0.4,0.1-0.8,0.1-1.3,0.1c-4.3,0-7.7-3.2-7.7-7.3c0-2.5,1.3-4.8,3.6-6.1
	C15.9,1.8,16,1.5,16,1.2c0-0.3-0.3-0.6-0.6-0.7C14.2,0.2,13,0,11.7,0C5.3,0,0,4.9,0,11s5.3,11,11.7,11c4.2,0,8-2.1,10.1-5.5
	C22.1,16.2,22.1,15.8,21.8,15.6z"/>
</svg>
