<?xml version="1.0" encoding="utf-8"?>
<!-- Generator: Adobe Illustrator 27.3.1, SVG Export Plug-In . SVG Version: 6.00 Build 0)  -->
<svg version="1.1" id="Layer_1" xmlns:serif="http://www.serif.com/"
	 xmlns="http://www.w3.org/2000/svg" xmlns:xlink="http://www.w3.org/1999/xlink" x="0px" y="0px" viewBox="0 0 22 22"
	 style="enable-background:new 0 0 22 22;" xml:space="preserve">
<style type="text/css">
	.st0{fill-rule:evenodd;clip-rule:evenodd;}
</style>
<g transform="matrix(1,0,0,1,-144,-240)">
	<path class="st0" d="M154.3,258.3v2.9c0,0.4,0.3,0.7,0.7,0.7c0.4,0,0.7-0.3,0.7-0.7v-2.9c0-0.4-0.3-0.7-0.7-0.7
		C154.6,257.6,154.3,257.9,154.3,258.3z M149.4,255.6l-2.1,2.1c-0.3,0.3-0.3,0.8,0,1c0.3,0.3,0.7,0.3,1,0l2.1-2.1
		c0.3-0.3,0.3-0.8,0-1C150.1,255.3,149.7,255.3,149.4,255.6z M159.6,256.7l2.1,2.1c0.3,0.3,0.7,0.3,1,0c0.3-0.3,0.3-0.8,0-1
		l-2.1-2.1c-0.3-0.3-0.7-0.3-1,0C159.3,255.9,159.3,256.4,159.6,256.7z M155,245.1c-3.2,0-5.9,2.6-5.9,5.9c0,3.2,2.6,5.9,5.9,5.9
		c3.2,0,5.9-2.6,5.9-5.9C160.9,247.8,158.3,245.1,155,245.1z M155,246.6c2.4,0,4.4,2,4.4,4.4s-2,4.4-4.4,4.4c-2.4,0-4.4-2-4.4-4.4
		S152.6,246.6,155,246.6z M162.3,251.7h2.9c0.4,0,0.7-0.3,0.7-0.7s-0.3-0.7-0.7-0.7h-2.9c-0.4,0-0.7,0.3-0.7,0.7
		S161.9,251.7,162.3,251.7z M144.7,251.7h2.9c0.4,0,0.7-0.3,0.7-0.7s-0.3-0.7-0.7-0.7h-2.9c-0.4,0-0.7,0.3-0.7,0.7
		S144.3,251.7,144.7,251.7z M150.4,245.3l-2.1-2.1c-0.3-0.3-0.7-0.3-1,0c-0.3,0.3-0.3,0.8,0,1l2.1,2.1c0.3,0.3,0.7,0.3,1,0
		S150.7,245.6,150.4,245.3z M160.7,246.4l2.1-2.1c0.3-0.3,0.3-0.8,0-1c-0.3-0.3-0.7-0.3-1,0l-2.1,2.1c-0.3,0.3-0.3,0.8,0,1
		S160.4,246.7,160.7,246.4z M154.3,240.7v2.9c0,0.4,0.3,0.7,0.7,0.7c0.4,0,0.7-0.3,0.7-0.7v-2.9c0-0.4-0.3-0.7-0.7-0.7
		C154.6,240,154.3,240.3,154.3,240.7z"/>
</g>
</svg>
