<?xml version="1.0" encoding="utf-8"?>
<!-- Generator: Adobe Illustrator 27.3.1, SVG Export Plug-In . SVG Version: 6.00 Build 0)  -->
<svg version="1.1" id="Ñëîé_1" xmlns="http://www.w3.org/2000/svg" xmlns:xlink="http://www.w3.org/1999/xlink" x="0px" y="0px"
	 viewBox="0 0 659.6 688.8" style="enable-background:new 0 0 659.6 688.8;" xml:space="preserve">
<style type="text/css">
	.st0{fill:#323239;}
	.st1{fill:#42C68B;}
	.st2{fill:#6230D5;}
	.st3{fill:#F0F2B9;}
	.st4{fill:#FFFAD6;}
	.st5{fill:#FF4152;}
	.st6{fill:#FFC519;}
	.st7{fill:#FFCA25;}
	.st8{fill:#28C7C7;}
</style>
<rect x="-5780.2" y="-3493" class="st0" width="5000" height="3000"/>
<g>
	<g>
		<path class="st1" d="M-2252.6-2724.6h-34.4c0,0,0-57.6,0-132.6c0-2.2,0-4.4,0-6.7c-0.6-8.3,5.2-15.2,12.9-18.7
			c9.6-4.3,29.9-6.9,22.2-19.9c-11.6-18.2-34.7-31.2-35.1-53.3c0-2.4,0-4.8,0-7.3c0-17,0-33.9,0-50.5c0-2.5,0-5,0.1-7.5
			c0.3-19.3,23.5-23.7,37-33.2c1.9-1.7,1.9-5.2,1-6.9c-11.6-19.1-41.5-30.3-38-55.1c0-2,0-3.9,0-5.9c0-44.2,0-73.6,0-73.6h34.4
			c0,0,0,34.8,0,85.5c0,2,0,4.1,0,6.2c0.7,22.1,23.8,34.3,37.3,52.5c1.9,2.6,1.9,5.2,0,6.9c-13.5,10.4-35.7,12.1-37.2,31.1
			c-0.1,2.5-0.1,5-0.1,7.5c0,18.7,0,37.8,0,56.8c0,2.4,0,4.8,0.2,7.2c1.4,21.3,24.5,34.3,35.1,52.5c8.7,15.6-20.3,15.6-29.9,25.1
			c-4.8,5.2-5.8,11.3-5.5,17.7c0,2.1,0,4.2,0,6.3C-2252.6-2773.8-2252.6-2724.6-2252.6-2724.6z"/>
	</g>
	<g>
		<path class="st1" d="M-2191.4-2724.6h-34.4c0,0,0-47.3,0-111.9c0-2,0-4.1,0-6.1c0.9-16.5,22.1-19.1,34.6-27.8
			c2.9-1.7,3.9-5.2,2.9-7.8c-10.6-19.9-38.6-33-37.5-57.5c0-2.3,0-4.7,0-7c0-18.6,0-37.4,0-55.8c0-2.5,0-5.1,0-7.6
			c0.9-18.7,25-20.4,34.6-33.5c2.9-3.5,0-6.9-1.9-9.5c-12.5-16.5-34.7-26.9-32.7-48.8c0-2.2,0-4.3,0-6.4c0-54,0-91.6,0-91.6h34.4
			c0,0,0,40.6,0,97.9c0,2.1,0,4.3,0,6.4c-3.7,26.8,35.9,38.9,34.9,62.3c-1,12.1-32.8,12.1-34.6,30.6c-0.3,2.5-0.3,5-0.3,7.6
			c0,22,0,44.3,0,66.3c0,2.4,0.1,4.9,0.3,7.4c3.8,20.7,28.8,29.4,37.5,47.6c0,1.7-1,3.5-1.9,5.2c-11.6,10.4-31.8,13-35.6,29.9
			c-0.3,2.1-0.4,4.2-0.4,6.2C-2191.4-2767.9-2191.4-2724.6-2191.4-2724.6z"/>
	</g>
	<g>
		<path class="st1" d="M-2130.2-2724.6h-34.4c0,0,0-38.8,0-94c0-2,0-4,0-6c0.4-4.1,0.4-8.5,2.4-11.9c7.7-13,34.7-13.9,32.8-28.6
			c-2.9-19.1-32.8-25.1-35.1-45.9c-0.1-2.4-0.1-4.8-0.1-7.2c0-21.4,0-43.3,0-64.9c0-2.5,0-5.1,0.3-7.6c2.1-16.6,28.2-17.5,33-30.5
			c4.8-15.6-19.3-24.3-28-39c-4.8-7.8-4.8-15.6-5.3-24.5c0-2.2,0-4.4,0-6.6c0-60.7,0-104.4,0-104.4h34.4c0,0,0,50.1,0,117.6
			c0,2.3,0,4.5,0,6.9c0.7,19.7,16.2,35.3,31.6,49.2c2.9,3.5,7.7,7.8,4.8,11.3c-10.6,14.7-37.6,14.7-36.4,35.3c0,2.6,0,5.1,0,7.7
			c0,17.5,0,35.1,0,52.4c0,2.5,0,4.9,0,7.4c2.6,19.5,22.9,29.9,36.4,43.8c1.9,2.6,3.9,6.1,1.9,8.7c-12.5,13.9-38.6,15.6-38.4,36.7
			c0,2.1,0,4.1,0,6.1C-2130.2-2760.7-2130.2-2724.6-2130.2-2724.6z"/>
	</g>
	<g>
		<path class="st1" d="M-2068.9-2724.6h-34.4c0,0,0-34.6,0-85c0-1.9,0-3.9,0.1-5.9c-1-6.4,2.8-10.7,5.7-15
			c9.6-10.4,31.8-13,29.9-25.1c-1-18.2-33.8-24.3-35.6-46.2c-0.1-2.4-0.1-4.8-0.1-7.2c0-16.8,0-34,0-51.2c0-2.6,0-5.1,0-7.7
			c-1-19.6,26-21.3,37.6-35.2c1-2.6-1-5.2-2.9-7.8c-15.4-15.6-38.6-30.3-34.7-53.6c0-2.3,0-4.6,0-6.9c0-70.9,0-124.4,0-124.4h34.4
			c0,0,0,60.6,0,138.4c0,2.4,0,4.7,0,7.1c1.3,21.2,23.4,32.5,37,47.2c2.9,3.5,4.8,6.9,1.9,10.4c-10.6,13-35.7,13-38.8,32.5
			c-0.1,2.6-0.1,5.1-0.1,7.7c0,16.8,0,33.5,0,49.9c0,2.3,0,4.7,0.3,7c3.8,20,27.9,26.1,38.5,42.6c1,1.7,0,3.5-1,5.2
			c-12.5,11.3-38.6,16.5-37.9,35.9c0,1.9,0,3.8,0,5.7C-2068.9-2757.7-2068.9-2724.6-2068.9-2724.6z"/>
	</g>
	<g>
		<path class="st1" d="M-2007.7-2724.6h-34.4c0,0,0-32.1,0-79.5c0-2,0-4,0-6c1.5-4.8,2.4-10.9,7.3-15.2c9.6-8.7,41.5-15.6,26-31.2
			c-13.5-13-33.8-23.4-33.3-42.8c0-2.5,0-5,0-7.5c0-12.5,0-25.2,0-38c0-2.6,0-5.1,0.2-7.7c1.3-18.5,25.4-20.2,35-34.1
			c1-2.6-1-6.1-2.9-8.7c-10.6-16.5-33.8-26.9-32.3-47.8c-0.1-2.4-0.1-4.8-0.1-7.2c0-81.1,0-145.5,0-145.5h34.4c0,0,0,68.2,0,152.7
			c0,2.4,0,4.8,0,7.3c-2.1,21.4,17.2,35.3,30.7,51.8c1.9,2.6,1.9,5.2,0,7.8c-10.6,10.4-28.9,15.6-30.6,31.4
			c-0.2,2.5-0.2,5.1-0.2,7.6c0,12.5,0,24.8,0,37c0,2.4,0,4.8,0,7.3c-0.2,21.7,27.8,31.2,38.4,48.6c1,1.7,1,4.3-1,6.1
			c-12.5,10.4-35.7,13.9-37.3,31.7c-0.1,1.9-0.1,3.9-0.1,5.8C-2007.7-2755.2-2007.7-2724.6-2007.7-2724.6z"/>
	</g>
	<g>
		<path class="st1" d="M-1946.5-2724.6h-34.4c0,0,0-29.7,0-74.2c0-2,0.1-4.1,0.3-6.1c3.6-14.3,22-18.6,34.5-27.3
			c3.9-2.6,3.9-6.1,1.9-8.7c-10.6-17.3-36.7-26.9-36.7-49.2c0-2.6,0-5.2,0-7.8c0-10.4,0-21,0-31.7c0-2.5,0-5.1,0.1-7.6
			c1-19.1,25.1-20.8,35.7-33.8c1-2.6-1-5.2-1.9-7.8c-15.4-18.2-39.6-32.1-33.8-57c0-2.4,0-4.9,0-7.3c0-84.5,0-152.7,0-152.7h34.4
			c0,0,0,80.4,0,174.7c0,2.5,0.1,5,0.7,7.6c5.5,17.3,21.9,28.5,33.5,44.1s-18.3,17.3-28,26c-3.9,3.5-6.8,8.7-6.2,13.7
			c0,2.5,0,5.1,0,7.6c0,10.4,0,20.6,0,30.7c0,2.5,0,5,0,7.5c0.3,20.2,21.6,30.6,35.1,44.5c2.9,2.6,3.9,6.1,2.9,8.7
			c-10.6,14.7-37.6,14.7-37.9,34.9c-0.1,1.9-0.1,3.8-0.1,5.7C-1946.5-2750.4-1946.5-2724.6-1946.5-2724.6z"/>
	</g>
	<g>
		<path class="st1" d="M-1885.3-2724.6h-34.4c0,0,0-22.3,0-57.1c0-3.5,0-7.1,0-10.8c2.5-15.4,20.8-19.7,34.3-28.4
			c1.9-1.7,5.8-5.2,3.9-8.7c-10.6-17.3-35.7-26-38.2-47.7c0-2.4,0-4.8,0-7.3c0-9.8,0-19.7,0-29.8c0-2.5,0-5,0.1-7.6
			c1.5-15.2,19.8-21.3,32.4-30.8c1.9-1.7,3.9-4.3,2.9-6.9c-10.6-19.1-36.7-30.3-35.3-53.8c0-2.5,0-5,0-7.5c0-94.4,0-174.7,0-174.7
			h34.4c0,0,0,84.7,0,182.2c0,2.5,0,5,0,7.5c-3,22,22.1,32.4,33.7,48.9c1.9,3.5,4.8,7.8,1,11.3c-14.5,8.7-32.8,13.9-34.4,31.4
			c-0.2,2.5-0.2,5-0.2,7.5c0,8.1,0,16.2,0,24.1c0,2.6,0,5.3,0,7.9c-0.1,23.6,27.9,32.2,38.5,50.5c1.9,1.7,0,5.2-1.9,6.9
			c-12.5,10.4-36.7,14.7-36.5,32.7c-0.1,1.9-0.1,3.8-0.1,5.7C-1885.3-2745.8-1885.3-2724.6-1885.3-2724.6z"/>
	</g>
	<g>
		<path class="st1" d="M-1824-2724.6h-34.4c0,0,0-20.1,0-52c0-1.8,0-3.6,0.2-5.4c1-19,30.9-19,35.7-34.6
			c3.9-14.7-19.3-20.8-28.9-33.8c-3.9-6.1-7.7-11.3-6.9-18.1c0-2.5,0-5,0-7.6c0-7.6,0-15.4,0-23.3c0-2.5,0-5,0.2-7.5
			c0-14.7,13.5-22.5,27-27.7c2.9-1.7,5.8-4.3,4.8-7.8c-6.8-20.8-32.8-33.8-31.8-56c-0.2-2.6-0.2-5.2-0.2-7.7
			c0-100.7,0-189.7,0-189.7h34.4c0,0,0,89.1,0,189.7c0,2.5,0,5,0.1,7.7c0.3,20.4,9,40.4,25.4,56.9c18.3,19.1-15.4,24.3-23.2,39
			c-1,3.5-2.9,6.9-2.4,10.5c0,2.5,0,4.9,0,7.4c0,5.5,0,10.9,0,16.3c0,2.7,0,5.3,0.3,8c2.1,21.1,33,28.9,33,47.1
			c1,16.5-32.8,16.5-33.2,35.9c-0.1,1.9-0.1,3.7-0.1,5.6C-1824-2742.6-1824-2724.6-1824-2724.6z"/>
	</g>
</g>
<g>
	<path class="st2" d="M-2748.7-3105l51.5-84.1c4.1-6.7,14.4-3.7,14.3,4.2l-2.1,98.6c-0.1,5.7,5.9,9.6,11,7.1l88.8-42.9
		c7.1-3.4,14.1,4.7,9.7,11.2l-55.1,81.8c-3.2,4.8-0.3,11.2,5.5,11.9l97.9,12c7.8,1,9.3,11.6,2.1,14.7l-90.5,39.1
		c-5.3,2.3-6.3,9.3-1.9,13l75.9,63c6,5,1.6,14.8-6.2,13.5l-97.3-16.1c-5.7-0.9-10.3,4.4-8.6,9.9l29.8,94c2.4,7.5-6.7,13.3-12.5,8
		l-73.1-66.1c-4.3-3.9-11.1-1.8-12.6,3.7l-25.8,95.2c-2.1,7.6-12.8,7.6-14.9,0l-25.8-95.2c-1.5-5.5-8.3-7.6-12.6-3.7l-73.1,66.1
		c-5.8,5.3-14.9-0.5-12.5-8l29.8-94c1.7-5.5-2.9-10.9-8.6-9.9l-97.3,16.1c-7.7,1.3-12.2-8.5-6.2-13.5l75.9-63
		c4.4-3.7,3.4-10.7-1.9-13l-90.5-39.1c-7.2-3.1-5.7-13.8,2.1-14.7l97.9-12c5.7-0.7,8.7-7.2,5.5-11.9l-55.1-81.8
		c-4.4-6.5,2.7-14.6,9.7-11.2l88.8,42.9c5.2,2.5,11.2-1.4,11-7.1l-2.1-98.6c-0.2-7.9,10.2-10.9,14.3-4.2l51.5,84.1
		C-2758.8-3100.1-2751.7-3100.1-2748.7-3105z"/>
</g>
<g>
	<path class="st3" d="M-1170.5-2761c-210.2-237.2-188.3-237.2-398.4,0c237.2-210.2,237.2-188.3,0-398.4
		c210.2,237.2,188.3,237.2,398.4,0C-1407.7-2949.2-1407.7-2971.1-1170.5-2761z"/>
</g>
<g>
	<path class="st4" d="M-3255.9-2960.2c0-9.4-81.8-17.5-197-20.7c-21.9-0.6-32.7-26.8-17.7-42.6c79.2-83.7,131.4-147.3,124.7-153.9
		c-6.7-6.7-70.2,45.5-153.9,124.7c-15.9,15-42,4.2-42.6-17.7c-3.2-115.2-11.2-197-20.7-197c-9.4,0-17.5,81.8-20.7,197
		c-0.6,21.9-26.8,32.7-42.6,17.7c-83.7-79.2-147.3-131.4-153.9-124.7c-6.7,6.7,45.5,70.2,124.7,153.9c15,15.9,4.2,42-17.7,42.6
		c-115.2,3.2-197,11.2-197,20.7c0,9.4,81.8,17.5,197,20.7c21.9,0.6,32.7,26.8,17.7,42.6c-79.2,83.7-131.4,147.3-124.7,153.9
		c6.7,6.7,70.2-45.5,153.9-124.7c15.9-15,42-4.2,42.6,17.7c3.2,115.2,11.2,197,20.7,197c9.4,0,17.5-81.8,20.7-197
		c0.6-21.9,26.8-32.7,42.6-17.7c83.7,79.2,147.3,131.4,153.9,124.7c6.7-6.7-45.5-70.2-124.7-153.9c-15-15.9-4.2-42,17.7-42.6
		C-3337.7-2942.7-3255.9-2950.8-3255.9-2960.2z"/>
</g>
<g>
	<path class="st5" d="M-4265.6-3097c93.8-134.7-284.3-134.7-190.5,0c-93.8-134.7-282.9,136.8-95.3,136.8
		c-187.7,0,1.4,271.5,95.3,136.8c-93.8,134.7,284.3,134.7,190.5,0c93.8,134.7,282.9-136.8,95.3-136.8
		C-3982.6-2960.2-4171.7-3231.7-4265.6-3097z"/>
</g>
<g>
	<g>
		<polygon class="st2" points="-5540.9,-792.8 -5308.6,-792.8 -5308.6,-1186.6 		"/>
	</g>
	<g>
		<polygon class="st2" points="-5295.4,-792.8 -5058.2,-792.8 -5058.2,-1186.6 		"/>
	</g>
	<g>
		<polygon class="st2" points="-5045,-792.8 -4807.8,-792.8 -4807.8,-1186.6 		"/>
	</g>
</g>
<g>
	<path class="st5" d="M-2478.1-1640.2c-36.1,0-75.2-133-44.9-152.9c-30.3,19.9-135-70.8-120.4-104.4
		c-14.6,33.5-151.8,13.8-157.7-22.7c6,36.5-120.1,94.1-145,66.2c24.9,27.9-50,144.5-86.2,134.1c36.1,10.4,36.1,149,0,159.4
		c36.1-10.4,111,106.2,86.2,134.1c24.9-27.9,151,29.7,145,66.2c6-36.5,143.2-56.2,157.7-22.7c-14.6-33.5,90.2-124.3,120.4-104.4
		C-2553.3-1507.2-2514.2-1640.2-2478.1-1640.2z"/>
</g>
<g>
	<path class="st2" d="M-3567.7-2532.6c-134.3,2.4-242.4,112.1-242.4,246.9h190.4c31.3,0,56.6,25.3,56.6,56.6v190.4
		c134.9,0,244.5-108.1,246.9-242.4C-3313.6-2420.5-3428.2-2535.1-3567.7-2532.6z"/>
</g>
<g>
	<g>
		<path class="st4" d="M-3750.3-718.7h-6.8V-853c-3.4-26,13-44.4,28.8-62.1c4.8-5.4,9.7-10.9,14.1-16.6c2.8-3.8,4.2-9.5,1.9-11.5
			c-3.7-2.3-7.8-4.5-11.7-6.6c-15.8-8.4-33.7-18-33-40c-0.1-3.4-0.1-6.8-0.1-10.2v-260.8h6.8v260.8c0,3.3,0,6.7,0.1,10.1l0,0.1
			l0,0.1c-0.7,17.9,13.9,25.6,29.4,33.9c4.1,2.2,8.3,4.4,12.3,6.9l0.2,0.2c6.7,5.1,3.8,15.3-0.5,21c-4.5,5.9-9.5,11.5-14.4,17
			c-15.5,17.4-30.2,33.9-27.1,57l0,0.4V-718.7z"/>
	</g>
	<g>
		<path class="st4" d="M-3637.8-718.7h-6.8v-181.1c0-3.2,0-6.5,0.1-9.8l0-0.4c2.5-18.2,13.1-31.9,23.3-45.1
			c7-9.1,13.7-17.7,17.9-27.6c0.1-0.8,0.2-1.5,0.3-2.1c0.2-1.1,0.3-1.8,0.2-2.3c-4.2-4.8-10.4-8.1-16.9-11.6
			c-11.8-6.4-25.3-13.6-24.9-31.5l0-230.4h6.8v230.5c-0.3,13.9,9.7,19.3,21.3,25.5c6.9,3.7,14.1,7.6,19.2,13.6l0.3,0.3l0.2,0.4
			c1.3,2.5,0.9,5,0.6,6.7c-0.1,0.7-0.2,1.3-0.2,1.8v0.7l-0.3,0.6c-4.5,11-11.9,20.5-19,29.8c-10.1,13.1-19.7,25.4-21.9,41.7
			c-0.1,3.2-0.1,6.4-0.1,9.5V-718.7z"/>
	</g>
	<g>
		<path class="st4" d="M-3525.3-718.7h-6.8v-220.5c0-3.3,0-6.7,0-10l0-0.3c1-11.2,5.5-20.4,9.4-27.2c4-7.2,10.8-13.5,17.3-19.6
			c12.4-11.6,19.6-19.4,15.2-28.3c-3.2-5.6-10-9.6-17.2-13.7c-11.7-6.8-24.9-14.5-24.7-31.7l0-190.7h6.8l0,190.8
			c-0.2,13.3,10.3,19.4,21.4,25.8c7.7,4.5,15.6,9.1,19.7,16.3l0.1,0.2c7.1,14.1-5,25.4-16.6,36.3c-6.1,5.8-12.5,11.7-16,18
			c-5.3,9.2-7.8,16.5-8.5,24.3c0,3.3,0,6.6,0,9.9V-718.7z"/>
	</g>
	<g>
		<path class="st4" d="M-3412.8-718.7h-6.8l0-261c0-3.4,0.1-6.8,0.2-10.3l0-0.5c2.8-16.6,14.4-25.8,25.6-34.7
			c7.4-5.9,14.4-11.5,18.8-19l0.2-0.3c1.3-1.8,0.3-3.7-4.2-8.3c-3.1-2.6-6.6-5.3-9.9-7.8c-13.1-10-26.7-20.3-30.2-37.5l0-0.2
			c-0.4-3.3-0.5-6.7-0.5-9.8v-152.7h6.8v152.7c0,3,0,5.9,0.4,8.8c3.1,14.6,15,23.7,27.6,33.3c3.4,2.6,7,5.3,10.2,8.1l0.2,0.2
			c3.5,3.5,10.1,10.1,5.1,17c-5,8.5-12.8,14.7-20.3,20.7c-10.6,8.5-20.6,16.5-23.1,30.4c-0.1,3.3-0.2,6.7-0.2,10L-3412.8-718.7z"/>
	</g>
	<g>
		<rect x="-3855.9" y="-1161.8" class="st4" width="542" height="6.8"/>
	</g>
	<g>
		<path class="st4" d="M-3624.9-1042.6c-0.2,0-0.3,0-0.5,0h-230.5v-6.8h230.5c0.2,0,0.3,0,0.5,0c32.8,0,66.5-1.8,99.1-3.6
			c26.1-1.4,53-2.9,79.3-3.4c0,0,0,0,0,0c17.9,0,35.7,0.5,53,1c41.6,1.2,81,2.4,122.3-3.1l0.9,6.7c-41.9,5.5-83.3,4.3-123.4,3.1
			c-17.2-0.5-35-1-52.7-1c-26.1,0.5-53,2-79,3.4C-3558.1-1044.4-3592-1042.6-3624.9-1042.6z"/>
	</g>
	<g>
		<path class="st4" d="M-3313.9-930l-261,0c-19-0.7-38.1-4.7-56.7-8.7c-6.3-1.3-12.7-2.7-19-3.9c-51-9.3-100.3-1.5-152.5,6.8
			c-12.1,1.9-24.6,3.9-37,5.6l-0.4,0c-4.1,0.1-7.9,0.2-11.6,0.2h-3.9v-6.8h3.9c3.6,0,7.3-0.1,11.2-0.2c12.3-1.7,24.7-3.7,36.7-5.6
			c50.5-8,102.7-16.2,154.8-6.7c6.3,1.2,12.8,2.6,19.1,3.9c18.2,3.9,37.1,7.9,55.5,8.5h260.8V-930z"/>
	</g>
	<g>
		<path class="st4" d="M-3313.9-817.5h-485.7c-4.4,0-8.5,0-12.4,0l-0.1,0c-1.1-0.1-2.3-0.1-3.5-0.2c-10.5-0.5-22.3-1-32.4-6.3l3.1-6
			c8.8,4.6,19.4,5.1,29.6,5.5c1.2,0.1,2.3,0.1,3.5,0.2c3.8,0,7.9,0,12.2,0h485.7V-817.5z"/>
	</g>
</g>
<g>
	<polygon class="st6" points="-4360.8,-2410.9 -4294.2,-2532.3 -4295.2,-2403.3 -4169.1,-2502.6 -4237.6,-2381.6 -4067.1,-2446.7 
		-4194.8,-2348.2 -4000.5,-2371.3 -4172,-2307.4 -3977.4,-2285.6 -4172,-2263.9 -4000.5,-2199.9 -4194.8,-2223 -4067.1,-2124.6 
		-4237.6,-2189.7 -4169.1,-2068.6 -4295.2,-2167.9 -4294.2,-2038.9 -4360.8,-2160.3 -4427.4,-2038.9 -4426.4,-2167.9 
		-4552.5,-2068.6 -4484,-2189.7 -4654.5,-2124.6 -4526.8,-2223 -4721.1,-2199.9 -4549.6,-2263.9 -4744.2,-2285.6 -4549.6,-2307.4 
		-4721.1,-2371.3 -4526.8,-2348.2 -4654.5,-2446.7 -4484,-2381.6 -4552.5,-2502.6 -4426.4,-2403.3 -4427.4,-2532.3 	"/>
</g>
<g>
	<path class="st6" d="M-1953.4-2328.4c20.2-29.7,57.8-67,117.8-123.1c-66.7,47.4-111.7,77.6-147.6,94.5
		c-31.9-42.9-43.3-114-55.9-247.2c-12.7,133.2-24,204.3-55.9,247.2c-35.9-16.8-80.9-47.1-147.6-94.5c60,56.1,97.6,93.4,117.8,123.1
		c-27.4,18.9-65,30.5-117.8,42.8c52.9,12.3,90.4,23.8,117.8,42.8c-20.2,29.7-57.8,67-117.8,123.1c66.7-47.4,111.7-77.6,147.6-94.5
		c31.9,42.9,43.3,114,55.9,247.2c12.7-133.2,24-204.3,55.9-247.2c35.9,16.8,80.9,47.1,147.6,94.5c-60-56.1-97.6-93.4-117.8-123.1
		c27.4-18.9,65-30.5,117.8-42.8C-1888.4-2297.9-1925.9-2309.5-1953.4-2328.4z"/>
</g>
<g>
	<path class="st5" d="M-1044.9-2285.6c-300.4,13.5-311.3,24.4-324.8,324.8c-13.5-300.4-24.4-311.3-324.8-324.8
		c300.4-13.5,311.3-24.4,324.8-324.8C-1356.3-2310.1-1345.3-2299.1-1044.9-2285.6z"/>
</g>
<g>
	<path class="st6" d="M-1369.8-982.5c0-429.7-325.3-273.1,28.2-13.6c-353.5-259.5-433.8,92.5,7-30.5
		c-440.8,123-215.7,405.2-19.5-24.5c-196.2,429.7,164.8,429.7-31.3,0c196.2,429.7,421.3,147.5-19.5,24.5c440.8,123,360.4-229,7,30.5
		C-1044.5-1255.6-1369.8-1412.3-1369.8-982.5z"/>
</g>
<g>
	<g>
		<path class="st4" d="M-1530.1-1403.1c-22.5,0-37-39.4-45.2-72.4c-11.3-45.3-17.5-105.5-17.5-169.5c0-64,6.2-124.2,17.5-169.5
			c8.2-33,22.7-72.4,45.2-72.4c22.5,0,37,39.4,45.2,72.4c11.3,45.3,17.5,105.5,17.5,169.5c0,64-6.2,124.2-17.5,169.5
			C-1493.1-1442.5-1507.6-1403.1-1530.1-1403.1z M-1530.1-1880.1c-27,0-55.9,94.5-55.9,235.1c0,140.6,28.9,235.1,55.9,235.1
			s55.9-94.5,55.9-235.1C-1474.1-1785.6-1503.1-1880.1-1530.1-1880.1z"/>
	</g>
	<g>
		<path class="st4" d="M-1429.1-1403.1c-22.5,0-37-39.4-45.2-72.4c-11.3-45.3-17.5-105.5-17.5-169.5c0-64,6.2-124.2,17.5-169.5
			c8.2-33,22.7-72.4,45.2-72.4c22.5,0,37,39.4,45.2,72.4c11.3,45.3,17.5,105.5,17.5,169.5c0,64-6.2,124.2-17.5,169.5
			C-1392.1-1442.5-1406.6-1403.1-1429.1-1403.1z M-1429.1-1880.1c-27,0-55.9,94.5-55.9,235.1c0,140.6,28.9,235.1,55.9,235.1
			s55.9-94.5,55.9-235.1C-1373.1-1785.6-1402-1880.1-1429.1-1880.1z"/>
	</g>
	<g>
		<path class="st4" d="M-1328-1403.1c-22.5,0-37-39.4-45.2-72.4c-11.3-45.3-17.5-105.5-17.5-169.5c0-64,6.2-124.2,17.5-169.5
			c8.2-33,22.7-72.4,45.2-72.4c22.5,0,37,39.4,45.2,72.4c11.3,45.3,17.5,105.5,17.5,169.5c0,64-6.2,124.2-17.5,169.5
			C-1291-1442.5-1305.6-1403.1-1328-1403.1z M-1328-1880.1c-27,0-55.9,94.5-55.9,235.1c0,140.6,28.9,235.1,55.9,235.1
			c27,0,55.9-94.5,55.9-235.1C-1272.1-1785.6-1301-1880.1-1328-1880.1z"/>
	</g>
	<g>
		<path class="st4" d="M-1227-1403.1c-22.5,0-37-39.4-45.2-72.4c-11.3-45.3-17.5-105.5-17.5-169.5c0-64,6.2-124.2,17.5-169.5
			c8.2-33,22.7-72.4,45.2-72.4s37,39.4,45.2,72.4c11.3,45.3,17.5,105.5,17.5,169.5c0,64-6.2,124.2-17.5,169.5
			C-1190-1442.5-1204.5-1403.1-1227-1403.1z M-1227-1880.1c-27,0-55.9,94.5-55.9,235.1c0,140.6,28.9,235.1,55.9,235.1
			s55.9-94.5,55.9-235.1C-1171.1-1785.6-1200-1880.1-1227-1880.1z"/>
	</g>
	<g>
		
			<rect x="-1696.8" y="-1648.4" transform="matrix(1 -4.471711e-03 4.471711e-03 1 7.3423 -6.1416)" class="st4" width="654.2" height="6.8"/>
	</g>
	<g>
		
			<ellipse transform="matrix(0.951 -0.3092 0.3092 0.951 425.0534 -605.2225)" class="st4" cx="-1696.8" cy="-1643.6" rx="23.1" ry="23.1"/>
	</g>
	<g>
		
			<ellipse transform="matrix(0.6903 -0.7236 0.7236 0.6903 868.3307 -1264.4069)" class="st4" cx="-1042.7" cy="-1646.4" rx="23.1" ry="23.1"/>
	</g>
</g>
<g>
	<g>
		
			<ellipse transform="matrix(0.9837 -0.18 0.18 0.9837 240.6746 -964.7433)" class="st1" cx="-5196" cy="-1808.6" rx="63.5" ry="96.9"/>
	</g>
	<g>
		
			<ellipse transform="matrix(0.69 -0.7238 0.7238 0.69 -361.9861 -4374.5151)" class="st1" cx="-5288.1" cy="-1764.7" rx="63.5" ry="96.9"/>
	</g>
	<g>
		
			<ellipse transform="matrix(0.1328 -0.9911 0.9911 0.1328 -2967.8889 -6741.9575)" class="st1" cx="-5336.7" cy="-1675" rx="63.5" ry="96.9"/>
	</g>
	<g>
		
			<ellipse transform="matrix(0.8799 -0.4751 0.4751 0.8799 108.5017 -2718.3481)" class="st1" cx="-5323.3" cy="-1573.8" rx="96.9" ry="63.5"/>
	</g>
	<g>
		
			<ellipse transform="matrix(0.4326 -0.9016 0.9016 0.4326 -1628.4141 -5587.1641)" class="st1" cx="-5253" cy="-1499.9" rx="96.9" ry="63.5"/>
	</g>
	<g>
		
			<ellipse transform="matrix(0.9837 -0.18 0.18 0.9837 182.4742 -951.5982)" class="st1" cx="-5152.7" cy="-1481.3" rx="63.5" ry="96.9"/>
	</g>
	<g>
		
			<ellipse transform="matrix(0.69 -0.7238 0.7238 0.69 -464.6902 -4135.7012)" class="st1" cx="-5060.6" cy="-1525.3" rx="63.5" ry="96.9"/>
	</g>
	<g>
		
			<ellipse transform="matrix(0.1328 -0.9911 0.9911 0.1328 -2745.7207 -6368.2007)" class="st1" cx="-5012" cy="-1615" rx="63.5" ry="96.9"/>
	</g>
	<g>
		
			<ellipse transform="matrix(0.8799 -0.4751 0.4751 0.8799 211.9165 -2593.9136)" class="st1" cx="-5025.4" cy="-1716.2" rx="96.9" ry="63.5"/>
	</g>
	<g>
		
			<ellipse transform="matrix(0.4326 -0.9016 0.9016 0.4326 -1277.4487 -5610.0322)" class="st1" cx="-5095.7" cy="-1790.1" rx="96.9" ry="63.5"/>
	</g>
</g>
<g>
	<path class="st6" d="M-4358.9-1135.8l14.5-93.9c0.4-2.4,3.9-2.1,3.9,0.3l0,95.1c0,2.3,3.2,2.8,3.9,0.6l28.6-90.6
		c0.7-2.3,4.2-1.5,3.8,0.9l-14.6,93.9c-0.3,2.2,2.7,3.2,3.7,1.2l42.1-85.2c1.1-2.2,4.4-0.9,3.7,1.5l-28.7,90.6
		c-0.7,2.2,2.2,3.6,3.5,1.7l54.7-77.8c1.4-2,4.5-0.2,3.4,2l-42.2,85.2c-1,2,1.6,3.9,3.2,2.3l65.9-68.5c1.7-1.8,4.5,0.5,3,2.5
		l-54.7,77.7c-1.3,1.9,1,4.1,2.8,2.7l75.6-57.7c1.9-1.5,4.3,1.2,2.6,2.9l-65.9,68.5c-1.6,1.6,0.4,4.2,2.4,3.1l83.5-45.4
		c2.1-1.2,4.1,1.8,2.1,3.3l-75.6,57.6c-1.8,1.4-0.3,4.2,1.9,3.4l89.4-32.2c2.3-0.8,3.8,2.4,1.6,3.6l-83.5,45.4
		c-2,1.1-0.9,4.1,1.3,3.7l93.3-18.1c2.4-0.5,3.3,3,1,3.8l-89.5,32.1c-2.1,0.8-1.5,3.9,0.7,3.8l95-3.7c2.4-0.1,2.9,3.5,0.5,3.9
		l-93.3,18.1c-2.2,0.4-2.1,3.6,0.1,3.9l94.4,10.9c2.4,0.3,2.3,3.9-0.2,3.9l-95,3.6c-2.3,0.1-2.6,3.3-0.4,3.9l91.7,25.1
		c2.4,0.6,1.7,4.2-0.8,3.9l-94.4-10.9c-2.2-0.3-3.1,2.8-1,3.8l86.8,38.8c2.2,1,1,4.4-1.3,3.7l-91.6-25.2c-2.2-0.6-3.5,2.3-1.6,3.6
		l79.8,51.6c2.1,1.3,0.3,4.5-1.9,3.5l-86.7-38.9c-2.1-0.9-3.8,1.8-2.1,3.3l71,63.2c1.8,1.6-0.3,4.5-2.4,3.1l-79.8-51.7
		c-1.9-1.2-4,1.2-2.6,2.9l60.5,73.3c1.6,1.9-1,4.4-2.8,2.7l-70.9-63.3c-1.7-1.5-4.2,0.5-3,2.5l48.6,81.7c1.3,2.1-1.7,4.2-3.2,2.3
		l-60.4-73.4c-1.4-1.7-4.2-0.1-3.4,2l35.6,88.1c0.9,2.3-2.3,3.9-3.5,1.8l-48.5-81.7c-1.2-1.9-4.1-0.7-3.6,1.5l21.7,92.5
		c0.6,2.4-2.8,3.5-3.8,1.2l-35.5-88.2c-0.8-2.1-4-1.4-3.8,0.9l7.3,94.8c0.2,2.4-3.3,3-3.9,0.6l-21.6-92.6c-0.5-2.2-3.7-2-3.9,0.3
		l-7.2,94.8c-0.2,2.4-3.8,2.4-3.9,0l-7.2-94.8c-0.2-2.3-3.4-2.5-3.9-0.3l-21.6,92.6c-0.6,2.4-4.1,1.8-3.9-0.6l7.3-94.8
		c0.2-2.3-3-3-3.8-0.9l-35.5,88.2c-0.9,2.3-4.3,1.2-3.8-1.2l21.7-92.5c0.5-2.2-2.5-3.4-3.6-1.5l-48.5,81.7c-1.2,2.1-4.5,0.5-3.5-1.8
		l35.6-88.1c0.8-2.1-1.9-3.7-3.4-2l-60.4,73.4c-1.6,1.9-4.5-0.2-3.2-2.3l48.6-81.7c1.2-1.9-1.3-4-3-2.5l-70.9,63.3
		c-1.8,1.6-4.4-0.9-2.8-2.7l60.5-73.3c1.4-1.7-0.7-4.2-2.6-2.9l-79.8,51.7c-2.1,1.3-4.2-1.5-2.4-3.1l71-63.2
		c1.7-1.5-0.1-4.2-2.1-3.3l-86.7,38.9c-2.2,1-3.9-2.1-1.9-3.5l79.8-51.6c1.9-1.2,0.6-4.2-1.6-3.6l-91.6,25.2
		c-2.4,0.6-3.6-2.7-1.3-3.7l86.8-38.8c2.1-0.9,1.2-4-1-3.8l-94.4,10.9c-2.4,0.3-3.1-3.2-0.8-3.9l91.7-25.1c2.2-0.6,1.8-3.8-0.4-3.9
		l-95-3.6c-2.4-0.1-2.6-3.7-0.2-3.9l94.4-10.9c2.2-0.3,2.4-3.5,0.1-3.9l-93.3-18.1c-2.4-0.5-2-4,0.5-3.9l95,3.7
		c2.3,0.1,2.9-3.1,0.7-3.8l-89.5-32.1c-2.3-0.8-1.4-4.3,1-3.8l93.3,18.1c2.2,0.4,3.3-2.6,1.3-3.7l-83.5-45.4
		c-2.1-1.2-0.7-4.4,1.6-3.6l89.4,32.2c2.1,0.8,3.7-2.1,1.9-3.4l-75.6-57.6c-1.9-1.5,0-4.5,2.1-3.3l83.5,45.4c2,1.1,3.9-1.5,2.4-3.1
		l-65.9-68.5c-1.7-1.8,0.7-4.4,2.6-2.9l75.6,57.7c1.8,1.4,4.1-0.9,2.8-2.7l-54.7-77.7c-1.4-2,1.3-4.3,3-2.5l65.9,68.5
		c1.6,1.6,4.2-0.2,3.2-2.3l-42.2-85.2c-1.1-2.2,2-4,3.4-2l54.7,77.8c1.3,1.9,4.2,0.4,3.5-1.7l-28.7-90.6c-0.7-2.3,2.6-3.7,3.7-1.5
		l42.1,85.2c1,2,4.1,1.1,3.7-1.2l-14.6-93.9c-0.4-2.4,3.1-3.2,3.8-0.9l28.6,90.6c0.7,2.2,3.9,1.7,3.9-0.6l0-95.1
		c0-2.4,3.6-2.7,3.9-0.3l14.5,93.9C-4362.4-1133.5-4359.2-1133.5-4358.9-1135.8z"/>
</g>
<g>
	<path class="st5" d="M-4360.8-1472.5c0-129.4-47.9-107-191.6,89.5c143.7-196.5,152.9-243.9,36.6-189.6
		c116.3-54.3,77.5-87.9-155-134.3c232.5,46.4,286.1,39.5,214.2-27.7c71.9,67.1,95.8,24,95.8-172.5c0,196.5,24,239.6,95.8,172.5
		c-71.9,67.1-18.3,74,214.2,27.7c-232.5,46.4-271.3,79.9-155,134.3c-116.3-54.3-107.1-6.9,36.6,189.6
		C-4312.9-1579.5-4360.8-1601.9-4360.8-1472.5z"/>
</g>
<g>
	<g>
		
			<ellipse transform="matrix(0.8958 -0.4444 0.4444 0.8958 557.1999 -2602.283)" class="st4" cx="-5271.6" cy="-2489.5" rx="31.3" ry="31.3"/>
	</g>
	<g>
		<path class="st4" d="M-5174.4-2049.1c-63.2,0-122.6-24.6-167.3-69.3c-44.7-44.7-69.3-104.1-69.3-167.3
			c0-63.2,24.6-122.6,69.3-167.3c44.7-44.7,104.1-69.3,167.3-69.3s122.6,24.6,167.3,69.3c44.7,44.7,69.3,104.1,69.3,167.3
			c0,63.2-24.6,122.6-69.3,167.3C-5051.8-2073.7-5111.2-2049.1-5174.4-2049.1z M-5174.4-2515.4c-126.7,0-229.8,103.1-229.8,229.8
			c0,126.7,103.1,229.8,229.8,229.8s229.8-103.1,229.8-229.8C-4944.6-2412.3-5047.7-2515.4-5174.4-2515.4z"/>
	</g>
	<g>
		<path class="st4" d="M-5180.3-2100.2c-56.2,0-109.1-21.9-148.9-61.7c-39.8-39.8-61.7-92.6-61.7-148.9
			c0-56.2,21.9-109.1,61.7-148.9s92.6-61.7,148.9-61.7c56.2,0,109.1,21.9,148.9,61.7c39.8,39.8,61.7,92.6,61.7,148.9
			c0,56.2-21.9,109.1-61.7,148.9C-5071.1-2122.1-5124-2100.2-5180.3-2100.2z M-5180.3-2514.5c-112.4,0-203.8,91.4-203.8,203.8
			s91.4,203.8,203.8,203.8c112.4,0,203.8-91.4,203.8-203.8S-5067.9-2514.5-5180.3-2514.5z"/>
	</g>
	<g>
		<path class="st4" d="M-5187.7-2143.8c-103.7,0-188.1-84.4-188.1-188.1c0-103.7,84.4-188.1,188.1-188.1
			c103.7,0,188.1,84.4,188.1,188.1C-4999.6-2228.2-5084-2143.8-5187.7-2143.8z M-5187.7-2513.3c-100,0-181.3,81.4-181.3,181.3
			s81.4,181.3,181.3,181.3c100,0,181.3-81.4,181.3-181.3S-5087.7-2513.3-5187.7-2513.3z"/>
	</g>
</g>
<g>
	<g>
		
			<ellipse transform="matrix(0.9986 -5.266244e-02 5.266244e-02 0.9986 113.4171 -140.8992)" class="st4" cx="-2617" cy="-2222.6" rx="19.4" ry="19.4"/>
	</g>
	<g>
		<path class="st4" d="M-2613.6-2033.6h-299.3v-354.3c0-82.5,67.1-149.7,149.7-149.7s149.7,67.1,149.7,149.7V-2033.6z
			 M-2906.2-2040.4h285.8v-347.5c0-78.8-64.1-142.9-142.9-142.9c-78.8,0-142.9,64.1-142.9,142.9V-2040.4z"/>
	</g>
	<g>
		<path class="st4" d="M-2613.6-2033.6h-245.9v-327.2c0-67.8,55.2-122.9,122.9-122.9c67.8,0,122.9,55.2,122.9,122.9V-2033.6z
			 M-2852.7-2040.4h232.4v-320.4c0-64.1-52.1-116.2-116.2-116.2s-116.2,52.1-116.2,116.2V-2040.4z"/>
	</g>
</g>
<g>
	<polygon class="st1" points="-3563.1,-1894.2 -3457.4,-1750.7 -3313.9,-1645 -3457.4,-1539.3 -3563.1,-1395.8 -3668.8,-1539.3 
		-3812.3,-1645 -3668.8,-1750.7 	"/>
</g>
<g>
	<path class="st7" d="M-5174.4-3267.2l61.7,211.1c4.8,16.5,17.7,29.4,34.2,34.2l211.1,61.7l-211.1,61.7
		c-16.5,4.8-29.4,17.7-34.2,34.2l-61.7,211.1l-61.7-211.1c-4.8-16.5-17.7-29.4-34.2-34.2l-211.1-61.7l211.1-61.7
		c16.5-4.8,29.4-17.7,34.2-34.2L-5174.4-3267.2z"/>
</g>
<g>
	<path class="st2" d="M-2668.8-993.9c321.1-15.8-62.2-15.8-81.3,0c19.1-15.8,19.1-333.3,0-67.3c19.1-265.9-29.4-265.9-10.3,0
		c-19.1-265.9-19.1,51.5,0,67.3c-19.1-15.8-402.4-15.8-81.3,0c-321.1-15.8-321.1,24.3,0,8.5c-321.1,15.8,62.2,15.8,81.3,0
		c-19.1,15.8-19.1,333.3,0,67.3c-19.1,265.9,29.4,265.9,10.3,0c19.1,265.9,19.1-51.5,0-67.3c19.1,15.8,402.4,15.8,81.3,0
		C-2347.7-969.6-2347.7-1009.8-2668.8-993.9z"/>
</g>
<g>
	<path class="st1" d="M-1905.7-792.1c-88.9,0-177.9,0-266.8,0c67.6-123,67.6-272.1,0-395.1c88.9,0,177.9,0,266.8,0
		C-1973.3-1064.2-1973.3-915.2-1905.7-792.1z"/>
</g>
<g>
	<path class="st2" d="M-2039.1-1660.1c0-387.5,42.2-90.3,3.9,27.6c38.3-117.9,247.2-333.5,19.4-20c227.8-313.5,87.3-48.2-13.1,24.6
		c100.3-72.9,396-124.5,27.5-4.8c368.5-119.7,99,12.3-25,12.3c124,0,393.6,132,25,12.3c368.5,119.7,72.9,68.1-27.5-4.8
		c100.3,72.9,240.8,338.1,13.1,24.6c227.8,313.5,18.9,97.9-19.4-20c38.3,117.9-3.9,415.1-3.9,27.6c0,387.5-42.2,90.3-3.9-27.6
		c-38.3,117.9-247.2,333.5-19.4,20c-227.8,313.5-87.3,48.2,13.1-24.6c-100.3,72.9-396,124.5-27.5,4.8c-368.5,119.7-99-12.3,25-12.3
		c-124,0-393.6-132-25-12.3c-368.5-119.7-72.9-68.1,27.5,4.8c-100.3-72.9-240.8-338.1-13.1-24.6c-227.8-313.5-18.9-97.9,19.4,20
		C-2081.3-1750.4-2039.1-2047.6-2039.1-1660.1z"/>
</g>
<g>
	<path class="st8" d="M654.6,344.4c-300.4,13.5-311.3,24.4-324.8,324.8C316.3,368.9,305.3,357.9,5,344.4
		C305.3,330.9,316.3,320,329.8,19.6C343.3,320,354.2,330.9,654.6,344.4z"/>
</g>
</svg>
