<?xml version="1.0" encoding="utf-8"?>
<!-- Generator: Adobe Illustrator 27.3.1, SVG Export Plug-In . SVG Version: 6.00 Build 0)  -->
<svg version="1.1" id="Layer_1" xmlns="http://www.w3.org/2000/svg" xmlns:xlink="http://www.w3.org/1999/xlink" x="0px" y="0px"
	 viewBox="0 0 23.4 20.5" style="enable-background:new 0 0 23.4 20.5;" xml:space="preserve">
<style type="text/css">
	.st0{fill-rule:evenodd;clip-rule:evenodd;fill:#444444;}
</style>
<path class="st0" d="M11.3,4.6C3.5-4.9-6.1,10.2,11,18.8c0.4,0.2,0.9,0.2,1.3,0c17.2-8.6,7.5-23.7-0.2-14.3
	C11.9,4.9,11.5,4.9,11.3,4.6z M4.7,0.5c2.1-0.6,4.6,0.1,7,2.8c5.5-6.1,12.1-1.8,11.4,4.9c-0.4,3.8-3.3,8.4-10.2,11.9
	c-0.8,0.4-1.6,0.4-2.3,0C-3.1,13.1-1.1,2,4.7,0.5z M11.3,4.6c-0.2-0.2-0.2-0.6,0-0.8L11.3,4.6z"/>
</svg>
