<?xml version="1.0" encoding="utf-8"?>
<!-- Generator: Adobe Illustrator 27.3.1, SVG Export Plug-In . SVG Version: 6.00 Build 0)  -->
<svg version="1.1" id="Layer_1" xmlns="http://www.w3.org/2000/svg" xmlns:xlink="http://www.w3.org/1999/xlink" x="0px" y="0px"
	 viewBox="0 0 23.4 20.5" style="enable-background:new 0 0 23.4 20.5;" xml:space="preserve">
<style type="text/css">
	.st0{fill-rule:evenodd;clip-rule:evenodd;fill:#ED8585;}
	.st1{fill-rule:evenodd;clip-rule:evenodd;fill:#444444;}
</style>
<path class="st0" d="M4.7,0.5c2.1-0.6,4.6,0.1,7,2.8c5.5-6.1,12.1-1.8,11.4,4.9c-0.4,3.8-3.3,8.4-10.2,11.9c-0.8,0.4-1.6,0.4-2.3,0
	C-3.1,13.1-1.1,2,4.7,0.5z"/>
<path class="st1" d="M11.7,3.3c-2.4-2.7-4.9-3.4-7-2.8C-1.1,2-3.1,13.1,10.6,20.1c0.7,0.4,1.5,0.4,2.3,0c6.9-3.5,9.8-8.1,10.2-11.9
	C23.8,1.5,17.2-2.8,11.7,3.3z M12.3,18.8c-0.4,0.2-0.9,0.2-1.3,0C-6.1,10.2,3.5-4.9,11.3,4.6c0.2,0.3,0.6,0.3,0.8-0.1
	C19.8-4.9,29.5,10.2,12.3,18.8z"/>
</svg>
