<svg width="755" height="211" viewBox="0 0 755 211" fill="none" xmlns="http://www.w3.org/2000/svg">
<mask id="mask0_185_1359" style="mask-type:luminance" maskUnits="userSpaceOnUse" x="0" y="0" width="755" height="211">
<path d="M755 0.607666H0.317993V210.802H755V0.607666Z" fill="black"/>
<path d="M18.3035 29.5582V192.902C46.5394 192.902 72.4406 192.902 100.676 192.902C158.546 192.902 183.747 132.931 146.412 105.396C173.48 75.5272 147.812 29.5582 103.242 29.5582C74.0738 29.5582 47.4721 29.5582 18.3035 29.5582ZM164.846 192.902C344.292 192.902 190.748 192.902 371.126 192.902L267.987 18.1235L164.846 192.902ZM384.66 29.5582V192.902C412.896 192.902 438.797 192.902 467.032 192.902C524.903 192.902 550.104 132.931 512.769 105.396C539.837 75.5272 514.169 29.5582 469.599 29.5582C440.431 29.5582 413.829 29.5582 384.66 29.5582ZM531.204 192.902C710.648 192.902 557.105 192.902 737.483 192.902L634.344 18.1235L531.204 192.902Z" fill="white"/>
</mask>
<g mask="url(#mask0_185_1359)">
<path d="M755 0.607666H0.317993V210.802H755V0.607666Z" fill="#28C7C7"/>
</g>
</svg>
