<?xml version="1.0" encoding="utf-8"?>
<!-- Generator: Adobe Illustrator 27.3.1, SVG Export Plug-In . SVG Version: 6.00 Build 0)  -->
<svg version="1.1" id="Layer_1" xmlns="http://www.w3.org/2000/svg" xmlns:xlink="http://www.w3.org/1999/xlink" x="0px" y="0px"
	 viewBox="0 0 20 20" style="enable-background:new 0 0 20 20;" xml:space="preserve">
<style type="text/css">
	.st0{fill:#444444;}
	.st1{fill:#FFC61A;}
</style>
<path class="st0" d="M14.7,20c-0.4,0-0.8-0.1-1.2-0.3l-3.4-1.8l-3.4,1.8C6.4,19.9,6,20,5.5,20c-0.5,0-0.9-0.2-1.3-0.5
	c-0.4-0.3-0.7-0.7-0.8-1.1C3.2,18,3.2,17.5,3.2,17l0.6-3.9L0.6,9.8c-0.3-0.3-0.5-0.6-0.6-1C0,8.4,0,8,0.1,7.6c0.1-0.4,0.3-0.7,0.6-1
	c0.3-0.3,0.7-0.4,1.1-0.5l4.5-0.7l2-4.2c0.2-0.4,0.4-0.7,0.8-0.9C9.4,0.1,9.8,0,10.2,0c0.4,0,0.8,0.1,1.1,0.3
	c0.3,0.2,0.6,0.5,0.8,0.9l2,4.2L17.9,6c0.5,0.1,0.9,0.3,1.2,0.6c0.4,0.3,0.6,0.7,0.8,1.2c0.1,0.5,0.2,0.9,0,1.4
	c-0.1,0.5-0.3,0.9-0.7,1.2l-2.7,2.7l0.6,3.9c0.1,0.4,0,0.7-0.1,1.1s-0.3,0.7-0.5,1c-0.2,0.3-0.5,0.5-0.8,0.7
	C15.5,19.9,15.1,20,14.7,20L14.7,20z M10.2,16.9c0.1,0,0.1,0,0.2,0.1l3.6,1.9c0.3,0.1,0.6,0.2,0.9,0.2c0.3,0,0.6-0.1,0.8-0.3
	c0.2-0.2,0.4-0.4,0.6-0.7c0.1-0.3,0.1-0.6,0.1-0.9L15.7,13c0-0.1,0-0.1,0-0.2c0-0.1,0.1-0.1,0.1-0.2l2.9-2.9
	c0.2-0.2,0.4-0.5,0.4-0.8c0.1-0.3,0.1-0.6,0-0.9c-0.1-0.3-0.3-0.6-0.5-0.8c-0.2-0.2-0.5-0.3-0.8-0.4l-4-0.6c-0.1,0-0.1,0-0.2-0.1
	c-0.1,0-0.1-0.1-0.1-0.2l-2.1-4.4c-0.1-0.2-0.3-0.4-0.5-0.5c-0.2-0.1-0.4-0.2-0.7-0.2c-0.2,0-0.5,0.1-0.7,0.2
	C9.3,1.2,9.2,1.4,9.1,1.6L7,6c0,0.1-0.1,0.1-0.1,0.2c-0.1,0-0.1,0.1-0.2,0.1L1.9,7C1.7,7,1.5,7.1,1.3,7.3C1.1,7.4,1,7.6,0.9,7.9
	c-0.1,0.2-0.1,0.5,0,0.7C0.9,8.8,1.1,9,1.2,9.2l3.4,3.4c0,0.1,0.1,0.1,0.1,0.2c0,0.1,0,0.1,0,0.2l-0.7,4.1c-0.1,0.3,0,0.6,0.1,0.9
	c0.1,0.3,0.3,0.5,0.6,0.7C5,19,5.3,19.1,5.6,19.1c0.3,0,0.6,0,0.9-0.2L10,17C10.1,17,10.1,16.9,10.2,16.9L10.2,16.9z"/>
<path class="st1" d="M10.2,16.9c0.1,0,0.1,0,0.2,0.1l3.6,1.9c0.3,0.1,0.6,0.2,0.9,0.2c0.3,0,0.6-0.1,0.8-0.3
	c0.2-0.2,0.4-0.4,0.6-0.7c0.1-0.3,0.1-0.6,0.1-0.9L15.7,13c0-0.1,0-0.1,0-0.2c0-0.1,0.1-0.1,0.1-0.2l2.9-2.9
	c0.2-0.2,0.4-0.5,0.4-0.8c0.1-0.3,0.1-0.6,0-0.9c-0.1-0.3-0.3-0.6-0.5-0.8c-0.2-0.2-0.5-0.3-0.8-0.4l-4-0.6c-0.1,0-0.1,0-0.2-0.1
	c-0.1,0-0.1-0.1-0.1-0.2l-2.1-4.4c-0.1-0.2-0.3-0.4-0.5-0.5c-0.2-0.1-0.4-0.2-0.7-0.2c-0.2,0-0.5,0.1-0.7,0.2
	C9.3,1.2,9.2,1.4,9.1,1.6L7,6c0,0.1-0.1,0.1-0.1,0.2c-0.1,0-0.1,0.1-0.2,0.1L1.9,7C1.7,7,1.5,7.1,1.3,7.3C1.1,7.4,1,7.6,0.9,7.9
	c-0.1,0.2-0.1,0.5,0,0.7C0.9,8.8,1.1,9,1.2,9.2l3.4,3.4c0,0.1,0.1,0.1,0.1,0.2c0,0.1,0,0.1,0,0.2l-0.7,4.1c-0.1,0.3,0,0.6,0.1,0.9
	c0.1,0.3,0.3,0.5,0.6,0.7C5,19,5.3,19.1,5.6,19.1c0.3,0,0.6,0,0.9-0.2L10,17C10.1,17,10.1,16.9,10.2,16.9L10.2,16.9z"/>
</svg>
